#!OML:ASF H:\LiuWeirdWalks\Patient Classification 1\Patient 1\Session 1\male.ASF
:FULLY-SPECIFIED
:DEGREES
1121
root 1.06711 17.7593 28.4709 2.34237 2.1659 9.1297
lowerback 17.1599 -1.42083 1.93873
upperback 1.80919 -1.05065 5.39977
thorax -7.62015 -0.475898 4.97496
lowerneck -17.4509 2.68645 8.09082
upperneck 14.8248 5.29831 -19.4631
head 8.30139 1.15086 -7.38535
rclavicle 3.97569e-015 8.26944e-014
rhumerus -9.30817 -28.022 -8.08846
rradius 33.795
rwrist -11.5242
rhand -19.8085 -1.99752
rfingers 7.12502
rthumb 6.52467 -31.877
lclavicle 3.97569e-015 8.26944e-014
lhumerus -36.7506 34.3122 25.7224
lradius 44.3337
lwrist 5.58712
lhand -15.3994 -1.11606
lfingers 7.12502
lthumb 10.7795 28.5873
rfemur -28.8207 -9.00557 6.36375
rtibia 42.0022
rfoot -5.97992 -9.37717
rtoes -7.74112
lfemur -8.94931 5.29307 -21.8257
ltibia 60.8724
lfoot 9.94455 6.81981
ltoes -14.6518
1122
root 1.04996 17.7844 28.5577 2.22471 2.02949 9.24677
lowerback 17.1541 -1.33259 1.96211
upperback 1.82541 -0.9283 5.43706
thorax -7.60785 -0.417139 4.97294
lowerneck -17.4803 2.67463 8.07474
upperneck 14.8223 5.31534 -19.6166
head 8.31515 1.14297 -7.43751
rclavicle -1.35174e-014 2.22639e-014
rhumerus -9.56113 -27.8999 -8.4861
rradius 33.7472
rwrist -11.5594
rhand -19.8027 -2.07714
rfingers 7.12502
rthumb 6.53027 -31.9565
lclavicle -1.35174e-014 2.22639e-014
lhumerus -36.6237 34.1987 25.4017
lradius 44.3049
lwrist 5.61564
lhand -15.4784 -1.23113
lfingers 7.12502
lthumb 10.7033 28.4762
rfemur -28.4546 -8.86975 6.37907
rtibia 42.0197
rfoot -5.91933 -9.85473
rtoes -7.75885
lfemur -8.86468 5.70073 -21.8908
ltibia 60.8204
lfoot 9.52989 7.25963
ltoes -14.7884
1123
root 1.03296 17.8085 28.6421 2.13701 1.90638 9.44459
lowerback 17.1235 -1.24952 1.90008
upperback 1.8313 -0.832527 5.43997
thorax -7.59036 -0.369189 4.98777
lowerneck -17.5209 2.67253 8.06729
upperneck 14.8356 5.34052 -19.7425
head 8.33652 1.14077 -7.48094
rclavicle 1.74931e-014 -6.36111e-014
rhumerus -9.80856 -27.7693 -8.89631
rradius 33.7189
rwrist -11.5791
rhand -19.7883 -2.13362
rfingers 7.12502
rthumb 6.54421 -32.0125
lclavicle 1.74931e-014 -6.36111e-014
lhumerus -36.5139 34.0851 25.0552
lradius 44.2604
lwrist 5.64984
lhand -15.5461 -1.25847
lfingers 7.12502
lthumb 10.638 28.4522
rfemur -28.1048 -8.67612 6.29032
rtibia 42.0142
rfoot -5.8698 -10.3692
rtoes -7.76747
lfemur -8.81794 6.08464 -22.0406
ltibia 60.7401
lfoot 9.10725 7.68119
ltoes -14.9242
1124
root 1.01664 17.8309 28.7235 2.10026 1.82546 9.78939
lowerback 17.056 -1.15923 1.73997
upperback 1.80206 -0.750885 5.37857
thorax -7.58919 -0.325706 4.99157
lowerneck -17.5101 2.64407 8.04312
upperneck 14.8369 5.32484 -19.8281
head 8.33566 1.12485 -7.51036
rclavicle -2.38542e-015 -3.49861e-014
rhumerus -10.1919 -27.5291 -9.23505
rradius 33.8132
rwrist -11.7319
rhand -19.8086 -2.2443
rfingers 7.12502
rthumb 6.52459 -32.1238
lclavicle -2.38542e-015 -3.49861e-014
lhumerus -36.3509 33.8977 24.764
lradius 44.2128
lwrist 5.72772
lhand -15.6352 -1.23597
lfingers 7.12502
lthumb 10.5521 28.4791
rfemur -27.7887 -8.47754 6.01505
rtibia 41.9969
rfoot -5.83601 -10.8648
rtoes -7.80683
lfemur -8.83104 6.40382 -22.3634
ltibia 60.6306
lfoot 8.68637 8.08668
ltoes -15.1357
1125
root 0.99644 17.8536 28.8033 2.05501 1.74384 9.94416
lowerback 16.9793 -1.08231 1.69122
upperback 1.78615 -0.66252 5.37143
thorax -7.57003 -0.281787 4.98868
lowerneck -17.4968 2.6285 8.0349
upperneck 14.8217 5.31834 -19.9024
head 8.33022 1.11603 -7.53646
rclavicle -1.82882e-014 3.18055e-015
rhumerus -10.5495 -27.3128 -9.59323
rradius 33.9267
rwrist -11.9042
rhand -19.8496 -2.35338
rfingers 7.12502
rthumb 6.48498 -32.2341
lclavicle -1.82882e-014 3.18055e-015
lhumerus -36.2138 33.738 24.4563
lradius 44.1482
lwrist 5.77999
lhand -15.7299 -1.25132
lfingers 7.12502
lthumb 10.4608 28.4684
rfemur -27.4562 -8.07777 5.941
rtibia 41.9675
rfoot -5.84308 -11.4717
rtoes -7.79636
lfemur -8.86001 6.74162 -22.4279
ltibia 60.5105
lfoot 8.24631 8.39896
ltoes -15.3298
1126
root 0.976632 17.8752 28.8804 2.02396 1.69938 10.1162
lowerback 16.8864 -1.01986 1.6313
upperback 1.76309 -0.596957 5.34757
thorax -7.54811 -0.248788 4.97895
lowerneck -17.4805 2.6108 8.02471
upperneck 14.8156 5.30606 -19.9524
head 8.32519 1.10631 -7.55432
rclavicle 4.53229e-014 -2.54444e-014
rhumerus -10.9247 -27.0825 -9.93923
rradius 34.0841
rwrist -12.1387
rhand -19.9138 -2.46702
rfingers 7.12502
rthumb 6.42308 -32.3496
lclavicle 4.53229e-014 -2.54444e-014
lhumerus -36.0873 33.5612 24.163
lradius 44.0804
lwrist 5.8285
lhand -15.8308 -1.29221
lfingers 7.12502
lthumb 10.3633 28.4324
rfemur -27.1188 -7.65339 5.82558
rtibia 41.9249
rfoot -5.87994 -12.0622
rtoes -7.74208
lfemur -8.91221 7.02279 -22.5088
ltibia 60.3708
lfoot 7.7975 8.68805
ltoes -15.4952
1127
root 0.960537 17.8952 28.9543 2.02328 1.72611 10.3735
lowerback 16.7676 -0.991587 1.54043
upperback 1.73101 -0.586249 5.28051
thorax -7.51758 -0.242104 4.95173
lowerneck -17.4616 2.60169 8.02914
upperneck 14.804 5.2987 -19.9897
head 8.31836 1.1013 -7.56916
rclavicle 3.33958e-014 8.90555e-014
rhumerus -11.2806 -26.8901 -10.2946
rradius 34.2511
rwrist -12.3627
rhand -19.9846 -2.56682
rfingers 7.12502
rthumb 6.35466 -32.4515
lclavicle 3.33958e-014 8.90555e-014
lhumerus -35.9832 33.4082 23.8705
lradius 44.0179
lwrist 5.86082
lhand -15.925 -1.28916
lfingers 7.12502
lthumb 10.2725 28.44
rfemur -26.7835 -7.34966 5.59015
rtibia 41.8626
rfoot -5.92888 -12.5539
rtoes -7.65434
lfemur -8.99992 7.19217 -22.711
ltibia 60.2104
lfoot 7.34929 8.98457
ltoes -15.6367
1128
root 0.945351 17.9152 29.0272 1.99753 1.77657 10.5222
lowerback 16.6471 -0.993303 1.53942
upperback 1.71896 -0.597456 5.23758
thorax -7.46354 -0.248802 4.90364
lowerneck -17.459 2.60901 8.04726
upperneck 14.7959 5.30979 -20.0213
head 8.31876 1.10539 -7.5824
rclavicle 3.97569e-015 1.90833e-014
rhumerus -11.5702 -26.7594 -10.6731
rradius 34.3892
rwrist -12.54
rhand -20.056 -2.64741
rfingers 7.12502
rthumb 6.28575 -32.5342
lclavicle 3.97569e-015 1.90833e-014
lhumerus -35.9466 33.2884 23.5637
lradius 43.9755
lwrist 5.83735
lhand -15.9818 -1.32997
lfingers 7.12502
lthumb 10.2177 28.4019
rfemur -26.404 -7.04953 5.46836
rtibia 41.7756
rfoot -6.00078 -13.0314
rtoes -7.52276
lfemur -9.05736 7.3248 -22.7804
ltibia 60.0228
lfoot 6.88517 9.23868
ltoes -15.7091
1129
root 0.931746 17.9342 29.0987 1.97696 1.8579 10.6877
lowerback 16.5035 -1.01364 1.51973
upperback 1.71294 -0.638644 5.18637
thorax -7.3879 -0.269867 4.86291
lowerneck -17.4636 2.62282 8.0597
upperneck 14.7841 5.32836 -20.0411
head 8.31994 1.11349 -7.58917
rclavicle 1.35174e-014 6.36111e-015
rhumerus -11.8075 -26.6669 -11.0546
rradius 34.505
rwrist -12.7292
rhand -20.1453 -2.71791
rfingers 7.12502
rthumb 6.19952 -32.6072
lclavicle 1.35174e-014 6.36111e-015
lhumerus -35.9465 33.1957 23.2731
lradius 43.9488
lwrist 5.80603
lhand -16.0139 -1.2918
lfingers 7.12502
lthumb 10.1867 28.4416
rfemur -26.0152 -6.83032 5.32315
rtibia 41.6712
rfoot -6.08941 -13.4545
rtoes -7.34834
lfemur -9.11337 7.40012 -22.8746
ltibia 59.8022
lfoot 6.4018 9.47474
ltoes -15.7593
1130
root 0.922208 17.9537 29.171 1.91359 1.99593 10.7638
lowerback 16.347 -1.09472 1.5856
upperback 1.73534 -0.744879 5.15463
thorax -7.27075 -0.325341 4.8073
lowerneck -17.4523 2.67631 8.1432
upperneck 14.7366 5.3875 -20.1035
head 8.31645 1.14343 -7.61778
rclavicle -7.95139e-016 2.54444e-014
rhumerus -11.8542 -26.7645 -11.5058
rradius 34.4198
rwrist -12.5982
rhand -20.1345 -2.61226
rfingers 7.12502
rthumb 6.21001 -32.5012
lclavicle -7.95139e-016 2.54444e-014
lhumerus -36.1062 33.1117 22.9314
lradius 44.0361
lwrist 5.77586
lhand -15.9714 -1.2048
lfingers 7.12502
lthumb 10.2277 28.5266
rfemur -25.5408 -6.7606 5.26397
rtibia 41.5376
rfoot -6.20207 -13.7798
rtoes -7.20236
lfemur -9.09956 7.40637 -22.8773
ltibia 59.5429
lfoot 5.86719 9.69461
ltoes -15.8282
1131
root 0.911657 17.9731 29.2412 1.86009 2.11743 10.803
lowerback 16.1921 -1.14641 1.68006
upperback 1.74187 -0.805939 5.13075
thorax -7.17544 -0.359209 4.73422
lowerneck -17.4576 2.69777 8.17183
upperneck 14.7371 5.4169 -20.1351
head 8.32446 1.15606 -7.63115
rclavicle 7.95139e-016 -4.13472e-014
rhumerus -12.0282 -26.7464 -11.8372
rradius 34.4337
rwrist -12.5776
rhand -20.1651 -2.56713
rfingers 7.12502
rthumb 6.18046 -32.457
lclavicle 7.95139e-016 -4.13472e-014
lhumerus -36.2001 32.9923 22.7109
lradius 44.1117
lwrist 5.74946
lhand -15.9025 -1.10747
lfingers 7.12502
lthumb 10.2942 28.6206
rfemur -25.0829 -6.67721 5.25761
rtibia 41.3743
rfoot -6.30558 -14.1028
rtoes -7.07002
lfemur -9.11473 7.421 -22.8276
ltibia 59.2619
lfoot 5.32878 9.86309
ltoes -15.8693
1132
root 0.901021 17.9919 29.3106 1.80134 2.24343 10.8262
lowerback 16.0309 -1.18089 1.77938
upperback 1.7419 -0.843112 5.11475
thorax -7.08552 -0.381311 4.66161
lowerneck -17.4581 2.68654 8.14013
upperneck 14.7597 5.41295 -20.1326
head 8.33054 1.15168 -7.62604
rclavicle 5.56597e-015 9.54166e-015
rhumerus -12.2844 -26.6417 -12.0658
rradius 34.5048
rwrist -12.6115
rhand -20.2118 -2.53907
rfingers 7.12502
rthumb 6.13534 -32.4302
lclavicle 5.56597e-015 9.54166e-015
lhumerus -36.2742 32.8497 22.5928
lradius 44.2069
lwrist 5.71587
lhand -15.7843 -1.00252
lfingers 7.12502
lthumb 10.4082 28.7199
rfemur -24.6087 -6.63197 5.26886
rtibia 41.1804
rfoot -6.40989 -14.3792
rtoes -6.95522
lfemur -9.12814 7.42503 -22.7548
ltibia 58.9562
lfoot 4.76294 9.99491
ltoes -15.9516
1133
root 0.889671 18.0113 29.3782 1.71348 2.3392 10.6189
lowerback 15.9011 -1.2064 2.06569
upperback 1.74768 -0.829096 5.17264
thorax -7.01212 -0.382451 4.5524
lowerneck -17.4832 2.66264 8.0748
upperneck 14.8069 5.40165 -20.1228
head 8.34704 1.14023 -7.61449
rclavicle -1.19271e-014 -1.27222e-014
rhumerus -12.5821 -26.4926 -12.2196
rradius 34.6282
rwrist -12.707
rhand -20.3015 -2.53177
rfingers 7.12502
rthumb 6.04878 -32.4254
lclavicle -1.19271e-014 -1.27222e-014
lhumerus -36.3378 32.7345 22.556
lradius 44.2794
lwrist 5.65009
lhand -15.6452 -0.948859
lfingers 7.12502
lthumb 10.5425 28.7667
rfemur -24.1123 -6.51396 5.54625
rtibia 40.953
rfoot -6.51125 -14.6746
rtoes -6.8599
lfemur -9.13952 7.47927 -22.3962
ltibia 58.6459
lfoot 4.18448 10.046
ltoes -16.0653
1134
root 0.875967 18.0292 29.4429 1.65623 2.40473 10.4326
lowerback 15.7676 -1.19833 2.26563
upperback 1.73923 -0.78517 5.24388
thorax -6.95224 -0.366109 4.50118
lowerneck -17.5194 2.62487 7.97906
upperneck 14.8612 5.37853 -20.1076
head 8.3652 1.12096 -7.5974
rclavicle 2.54444e-014 -1.59028e-014
rhumerus -12.9121 -26.2724 -12.3013
rradius 34.8003
rwrist -12.8951
rhand -20.4286 -2.57345
rfingers 7.12502
rthumb 5.92603 -32.4706
lclavicle 2.54444e-014 -1.59028e-014
lhumerus -36.3756 32.6518 22.5994
lradius 44.3001
lwrist 5.58839
lhand -15.5237 -0.919389
lfingers 7.12502
lthumb 10.6596 28.7902
rfemur -23.6622 -6.36353 5.80864
rtibia 40.7011
rfoot -6.60389 -14.9505
rtoes -6.77641
lfemur -9.20831 7.56221 -22.0503
ltibia 58.3152
lfoot 3.63407 10.056
ltoes -16.2291
